<svg xmlns="http://www.w3.org/2000/svg" viewBox="0 0 400 300" width="400" height="300">
  <!-- Computer -->
  <rect x="50" y="20" width="300" height="200" rx="10" ry="10" fill="#000000" />
  <rect x="60" y="30" width="280" height="160" rx="10" ry="10" fill="#FFFFFF" />
  <rect x="70" y="40" width="260" height="120" rx="5" ry="5" fill="#0000CC" />
  <text x="130" y="100" text-anchor="middle" fill="#00FF00" font-size="40">>404</text>
  
  <!-- Keyboard -->
  <rect x="50" y="230" width="300" height="50" rx="5" ry="5" fill="#FFFFFF" />
  <rect x="60" y="235" width="280" height="40" rx="5" ry="5" fill="#808080" />
  <g fill="#000000">
    <rect x="80" y="240" width="30" height="30" rx="5" ry="5" />
    <rect x="120" y="240" width="30" height="30" rx="5" ry="5" fill="#00FF00"/>
    <rect x="160" y="240" width="30" height="30" rx="5" ry="5" />
    <rect x="200" y="240" width="30" height="30" rx="5" ry="5" />
    <rect x="240" y="240" width="30" height="30" rx="5" ry="5" fill="#00FF00"/>
    <rect x="280" y="240" width="30" height="30" rx="5" ry="5" />
  </g>
</svg>
